<svg>
  <symbol viewBox="0 0 38 40" id="paw" width="38" height="40" xmlns="http://www.w3.org/2000/svg">
    <path d="M12.1074 0.0358353C11.5203 0.168569 11.0773 0.41702 10.5746 0.903711C10.1668 1.29511 9.87498 1.69331 9.59373 2.23446C7.91678 5.48134 8.4828 10.8383 10.8347 13.9082C11.1547 14.3269 11.7101 14.8782 12.0898 15.1539C13.3344 16.0626 14.7336 16.1103 15.8551 15.2832C17.0047 14.4324 17.7922 12.7919 18.091 10.6239C18.1648 10.0658 18.1789 8.33682 18.1086 7.76504C17.8203 5.37583 17.0855 3.39843 15.9359 1.90432C15.6476 1.53335 15.0816 0.975183 14.7265 0.713119C14.3961 0.471474 13.7703 0.158359 13.4433 0.0732727C13.1515 -0.00500637 12.3816 -0.0254266 12.1074 0.0358353Z" />
    <path d="M25.9273 0.723314C24.834 0.930924 23.6914 1.74094 22.7457 2.97299C21.5293 4.55558 20.7066 6.6487 20.3973 8.95623C20.2988 9.69137 20.3094 11.3318 20.4148 11.9989C20.6609 13.5202 21.1848 14.6842 21.9687 15.4398C22.6402 16.0932 23.484 16.3961 24.3418 16.2974C26.3844 16.0524 28.3988 13.8946 29.4746 10.7975C30.3676 8.22789 30.4625 5.52216 29.7312 3.45968C29.0176 1.44825 27.5691 0.406795 25.9273 0.723314Z" />
    <path d="M3.24803 11.8321C1.81014 12.0534 0.727329 13.1765 0.238657 14.9599C-0.0390774 15.9843 -0.0777493 17.3968 0.140219 18.639C0.642954 21.5319 2.37264 24.19 4.41874 25.2179C5.46639 25.742 6.51053 25.8339 7.40702 25.4731C8.72889 24.9422 9.59725 23.5672 9.88202 21.549C9.93827 21.144 9.93827 19.9425 9.8785 19.4729C9.42147 15.7223 7.03436 12.4311 4.38006 11.8832C4.06717 11.8185 3.5117 11.7947 3.24803 11.8321Z" />
    <path d="M33.043 14.5889C31.7774 14.851 30.5364 15.7121 29.5063 17.0462C28.3883 18.4961 27.636 20.3884 27.418 22.2943C27.3618 22.7912 27.3723 23.8599 27.4356 24.3398C27.8645 27.5662 30.1285 29.1148 32.6914 27.944C34.066 27.3144 35.3106 26.0177 36.2 24.2921C37.8875 21.0248 37.7785 17.196 35.9434 15.4228C35.17 14.674 34.1047 14.3677 33.043 14.5889Z" />
    <path d="M17.7676 20.6436C15.4403 21.0453 12.5047 23.4106 9.90315 26.9774C7.8676 29.7717 6.43322 32.7803 6.00432 35.1627C5.90236 35.7345 5.89182 36.7555 5.98322 37.1469C6.12736 37.7561 6.36994 38.1577 6.84104 38.5832C7.62854 39.2877 8.57424 39.7029 9.75901 39.8629C10.3742 39.9445 11.6188 39.9139 12.4098 39.7982C13.468 39.6382 14.361 39.4306 16.3614 38.8725C18.2949 38.3347 18.8363 38.2224 19.3707 38.2564C20.0492 38.3007 20.559 38.4606 22.0215 39.0835C23.0692 39.5293 23.6528 39.7403 24.152 39.8595C26.0153 40.2951 27.5832 39.7267 29.1969 38.0318C29.6785 37.5281 29.8262 37.2831 29.9774 36.7487C30.0617 36.4424 30.0688 36.3743 30.0688 35.6562C30.0688 35.0062 30.0582 34.8224 29.9879 34.448C29.5731 32.1779 28.3391 29.4347 26.5567 26.8243C24.4367 23.7204 21.9477 21.4843 19.8699 20.8206C19.1141 20.579 18.4707 20.5245 17.7676 20.6436Z" />
  </symbol>
  <symbol width="20" height="21" viewBox="0 0 20 21" xmlns="http://www.w3.org/2000/svg" id="load">
    <path d="M9.99517 21C15.4761 21 20 16.6718 20 11.4279C20 8.44068 18.4437 5.61067 16.1044 3.92746C15.5824 3.52053 14.9444 3.59452 14.6254 4.02919C14.2774 4.48237 14.4321 5.02802 14.8768 5.40721C16.7811 6.80371 17.9894 8.95859 17.999 11.4279C18.0087 15.6729 14.4321 19.0856 9.99517 19.0856C5.55824 19.0856 2.01063 15.6729 2.01063 11.4279C2.01063 7.83953 4.54326 4.8523 8.00387 4.0107V5.35172C8.00387 6.06384 8.55486 6.25806 9.15418 5.84188L12.4215 3.63151C12.9048 3.28932 12.9145 2.77141 12.4215 2.43847L9.16385 0.218855C8.55486 -0.197322 8.00387 -0.0123544 8.00387 0.70902V2.05929C3.46061 2.95638 0 6.84071 0 11.4279C0 16.6718 4.52392 21 9.99517 21Z" />
  </symbol>
</svg>